<svg id="visual" viewBox="0 0 960 540" width="960" height="540" xmlns="http://www.w3.org/2000/svg" xmlns:xlink="http://www.w3.org/1999/xlink" version="1.1"><g><g transform="translate(826 492)"><path d="M85.2 -68.2C103.2 -45.4 105.6 -10.4 98.1 22.4C90.7 55.3 73.4 85.9 47 99.3C20.6 112.7 -15 108.8 -42.9 93.6C-70.9 78.4 -91.3 52 -100 20.8C-108.7 -10.4 -105.8 -46.2 -87.2 -69.1C-68.6 -92.1 -34.3 -102.2 -0.3 -101.9C33.6 -101.6 67.3 -91 85.2 -68.2Z" stroke="hsl(var(--primary))" fill="none" stroke-width="20"></path></g><g transform="translate(354 527)"><path d="M85.7 -66C105 -44 110.6 -8.7 103.7 24.5C96.8 57.8 77.3 89 49.6 101.9C21.9 114.7 -14.1 109.3 -41.9 93.4C-69.7 77.5 -89.4 51.2 -96.6 21.5C-103.8 -8.1 -98.4 -41.2 -80.3 -62.9C-62.1 -84.7 -31 -95.1 1.1 -95.9C33.1 -96.8 66.3 -88 85.7 -66Z" stroke="hsl(var(--primary))" fill="none" stroke-width="20"></path></g><g transform="translate(838 148)"><path d="M63.7 -50.8C77.7 -33.3 80.8 -7 75.7 18.1C70.6 43.2 57.3 67.3 36.4 78.5C15.5 89.6 -13 87.8 -38.1 76.7C-63.3 65.5 -85.1 45 -90.3 21C-95.5 -3.1 -84.1 -30.5 -66.3 -48.9C-48.5 -67.3 -24.2 -76.6 0.3 -76.8C24.9 -77.1 49.7 -68.3 63.7 -50.8Z" stroke="hsl(var(--primary))" fill="none" stroke-width="20"></path></g></g></svg>