<?xml version="1.0" encoding="utf-8"?>
<!-- Generator: Adobe Illustrator 24.0.2, SVG Export Plug-In . SVG Version: 6.00 Build 0)  -->
<svg version="1.1" id="Layer_1" xmlns="http://www.w3.org/2000/svg" xmlns:xlink="http://www.w3.org/1999/xlink" x="0px" y="0px"
	 viewBox="0 0 1045.6 1024" style="enable-background:new 0 0 1045.6 1024;" xml:space="preserve">
<style type="text/css">
	.st0{fill:#2799D5;}
	.st1{fill:#3878BA;}
	.st2{fill:#458AC8;}
	.st3{fill:#A7C1E1;}
	.st4{fill:#4DA3D6;}
	.st5{fill:#2398D0;}
	.st6{fill:#63A5C2;}
	.st7{fill:#B5D6EC;}
	.st8{fill:#BBDDE5;}
	.st9{fill:#2596CC;}
	.st10{fill:#54AFDA;}
</style>
<g>
	<path class="st0" d="M398.2,574.64c0,4.74,0.19,9.43,0.56,14.07v-28.14C398.39,565.21,398.2,569.9,398.2,574.64z"/>
	<path class="st0" d="M398.2,574.64c0,4.74,0.19,9.43,0.56,14.07v-28.14C398.39,565.21,398.2,569.9,398.2,574.64z"/>
	<path class="st1" d="M751.47,542.44c46.6,0.96,90.7,8.1,131.18,20.38c-3.93-107.33-61.21-200.93-145.89-254.65
		c-44.65-28.32-96.92-45.55-153-47.86v140.84c78.53,5.87,142.41,64.72,156.64,141.22C744.08,542.35,747.77,542.36,751.47,542.44z"/>
	<path class="st1" d="M398.76,588.71c-0.37-4.64-0.56-9.33-0.56-14.07c0-4.74,0.19-9.43,0.56-14.07V260.05h-92.94v48.12h-47.11
		v266.47c0,91.65,38.88,174.13,100.91,231.63c13.08-45.15,38.64-88.63,73.4-126.83C413.8,653.8,401.45,622.63,398.76,588.71z"/>
	<path class="st1" d="M497.69,574.64c0-18.56,6.81-35.53,18.06-48.51c4.33-4.98,9.32-9.38,14.81-13.04
		c11.54-7.68,25.37-12.15,40.23-12.15c4.43,0,8.76,0.4,12.96,1.15c27.87,5.03,50.26,25.98,57.59,53.18
		c14.89-3.8,30.09-6.82,45.53-8.97c-11.66-48.69-52.67-85.84-103.12-91.33c-4.25-0.48-8.58-0.71-12.96-0.71
		c-14.12,0-27.66,2.47-40.23,7.01V260.05h-14.81V467.8c-20.92,10.96-38.21,28-49.57,48.78V260.05h-14.8v314.6
		c0,21.06,5.37,40.84,14.8,58.07c1.77,3.24,3.7,6.37,5.74,9.41c11.76-9.87,24.19-19.19,37.22-27.88
		C501.9,602.79,497.69,589.21,497.69,574.64z"/>
	<path class="st2" d="M451.38,865.39c4.87,2.04,9.81,3.95,14.8,5.74c15.97,5.73,32.53,10.18,49.57,13.23
		c4.9,0.89,9.84,1.64,14.81,2.28c13.17,1.71,26.6,2.6,40.23,2.6c4.34,0,8.67-0.09,12.96-0.27C750.1,882.12,882.87,744,882.87,574.64
		c0-3.96-0.08-7.9-0.22-11.82c-40.48-12.28-84.58-19.42-131.18-20.38c-3.7-0.08-7.39-0.09-11.07-0.06
		c1.95,10.46,2.97,21.24,2.97,32.26c0,91.69-70.36,166.81-159.62,173.49c-4.27,0.33-8.61,0.49-12.96,0.49
		c-13.85,0-27.32-1.64-40.23-4.75c-5.03-1.21-9.97-2.64-14.81-4.29c-18.04-6.11-34.74-15.14-49.57-26.54
		c-5.17-3.98-10.11-8.25-14.8-12.78c-6.65-6.43-12.79-13.4-18.36-20.82c-34.76,38.2-60.31,81.69-73.4,126.83
		c12.19,11.3,25.27,21.64,39.14,30.89C415.27,848.18,432.88,857.65,451.38,865.39z"/>
	<path class="st3" d="M515.75,681.49c4.75,2.5,9.7,4.69,14.81,6.52c12.57,4.54,26.11,7.01,40.23,7.01c4.38,0,8.71-0.23,12.96-0.71
		c59.86-6.51,106.45-57.6,106.45-119.67c0-9.76-1.15-19.25-3.33-28.34c-15.45,2.15-30.65,5.17-45.53,8.97
		c1.66,6.17,2.56,12.67,2.56,19.37c0,36.24-25.95,66.37-60.14,72.55c-4.2,0.76-8.54,1.15-12.96,1.15
		c-14.86,0-28.69-4.47-40.23-12.15c-5.5-3.67-10.48-8.06-14.81-13.04c-2.42-2.79-4.62-5.77-6.6-8.91
		c-13.03,8.69-25.46,18.01-37.22,27.88C483.03,658.64,498.09,672.23,515.75,681.49z"/>
	<rect x="316.06" y="319.69" class="st4" width="63.4" height="63.4"/>
	<rect x="194.74" y="198.38" class="st5" width="51" height="51"/>
	<rect x="305.82" y="191.1" class="st6" width="28.89" height="28.89"/>
	<rect x="216.86" y="134.76" class="st7" width="31.63" height="31.63"/>
	<rect x="137.32" y="150.58" class="st8" width="16.73" height="16.73"/>
	<rect x="132.72" y="221.65" class="st9" width="27.73" height="27.73"/>
	<rect x="176.76" y="299.89" class="st10" width="27.73" height="27.73"/>
</g>
</svg>
